<svg width="24" height="23" viewBox="0 0 24 23" fill="none" xmlns="http://www.w3.org/2000/svg">
<path d="M11.5935 19.7944V19.7944C11.5935 18.9442 10.9641 18.2227 10.1185 18.0746C10.9391 18.223 11.5727 18.9288 11.5727 19.7945M11.5935 19.7944L9.45841 21.5113M11.5935 19.7944C11.5935 20.6392 10.9722 21.3568 10.1349 21.5113M11.5935 19.7944L10.1349 21.5113M11.5727 19.7945H11.0727L11.5727 19.7944C11.5727 19.7944 11.5727 19.7945 11.5727 19.7945ZM11.5727 19.7945C11.5728 20.6544 10.9475 21.3565 10.1349 21.5113M10.1349 21.5113C10.0256 21.5315 9.91257 21.5421 9.79675 21.5421C9.68089 21.5421 9.5678 21.5315 9.45841 21.5113M9.45841 21.5113C8.64591 21.3564 8.02079 20.6543 8.02079 19.7945C8.02079 18.9289 8.65437 18.2231 9.47488 18.0746C8.62938 18.2227 8 18.9442 8 19.7944C8 20.6391 8.62124 21.3567 9.45841 21.5113Z" stroke="#838383"/>
<path d="M19.8218 18.0746C20.6423 18.2231 21.2758 18.9288 21.2758 19.7944L19.8218 18.0746ZM19.8218 18.0746C20.6673 18.2227 21.2966 18.9442 21.2966 19.7944C21.2966 20.6391 20.6754 21.3567 19.8383 21.5113C20.6508 21.3564 21.2759 20.6543 21.2758 19.7945L19.8218 18.0746ZM17.7031 19.7944C17.7031 18.9442 18.3325 18.2227 19.178 18.0746C18.3575 18.2231 17.7239 18.9289 17.7239 19.7945C17.7239 20.6543 18.349 21.3564 19.1615 21.5113C18.3244 21.3567 17.7031 20.6391 17.7031 19.7944Z" stroke="#838383"/>
<path d="M8.79424 11.8723L8.66629 12.6035C8.47104 13.7194 9.04363 14.8285 10.0664 15.3155V15.3155C10.1341 15.3478 10.2082 15.3645 10.2833 15.3645H20.2526" stroke="#838383" stroke-linecap="round"/>
<path d="M2.375 0.958374V0.958374C3.75414 0.958374 4.98931 1.81196 5.47693 3.10202L5.98667 4.45058M5.98667 4.45058L8.79167 11.8715L18.4525 11.5649C19.6873 11.5257 20.7718 10.7335 21.1847 9.56913L22.7634 5.11771C22.8788 4.79227 22.6375 4.45058 22.2922 4.45058H5.98667Z" stroke="#838383" stroke-linecap="round"/>
<path d="M2.375 0.958374L1 0.958374" stroke="#838383" stroke-linecap="round"/>
</svg>
