<svg width="22" height="22" viewBox="0 0 22 22" fill="none" xmlns="http://www.w3.org/2000/svg">
<path fill-rule="evenodd" clip-rule="evenodd" d="M2.83333 1C2.3471 1 1.88079 1.19315 1.53697 1.53697C1.19315 1.88079 1 2.3471 1 2.83333V20.2929L4.81311 16.4798C4.90688 16.386 5.03406 16.3333 5.16667 16.3333H19.1667C19.6529 16.3333 20.1192 16.1402 20.463 15.7964C20.8068 15.4525 21 14.9862 21 14.5V2.83333C21 2.3471 20.8068 1.88079 20.463 1.53697C20.1192 1.19315 19.6529 1 19.1667 1H2.83333ZM0.829864 0.829864C1.36122 0.298511 2.08189 0 2.83333 0H19.1667C19.9181 0 20.6388 0.298511 21.1701 0.829864C21.7015 1.36122 22 2.08189 22 2.83333V14.5C22 15.2514 21.7015 15.9721 21.1701 16.5035C20.6388 17.0348 19.9181 17.3333 19.1667 17.3333H5.37377L0.853553 21.8536C0.710554 21.9966 0.495495 22.0393 0.308658 21.9619C0.121821 21.8845 0 21.7022 0 21.5V2.83333C0 2.08189 0.298511 1.36122 0.829864 0.829864Z" fill="#838383"/>
<path d="M8.66571 12.0899C8.35905 12.0899 8.05571 12.0632 7.75571 12.0099C7.46238 11.9632 7.18571 11.8932 6.92571 11.7999C6.67238 11.6999 6.44238 11.5765 6.23571 11.4299C6.14238 11.3632 6.07571 11.2865 6.03571 11.1999C6.00238 11.1132 5.99238 11.0265 6.00571 10.9399C6.02571 10.8532 6.06238 10.7799 6.11571 10.7199C6.17571 10.6532 6.24905 10.6132 6.33571 10.5999C6.42238 10.5865 6.51238 10.6132 6.60571 10.6799C6.90571 10.8799 7.22238 11.0265 7.55571 11.1199C7.89571 11.2132 8.26571 11.2599 8.66571 11.2599C9.24571 11.2599 9.67238 11.1565 9.94571 10.9499C10.2257 10.7365 10.3657 10.4599 10.3657 10.1199C10.3657 9.83986 10.2657 9.6232 10.0657 9.46986C9.86571 9.30986 9.53238 9.17986 9.06571 9.07986L8.00571 8.85986C7.37905 8.7332 6.90905 8.51653 6.59571 8.20986C6.28905 7.89653 6.13571 7.4832 6.13571 6.96986C6.13571 6.65653 6.19905 6.36986 6.32571 6.10986C6.45238 5.84986 6.63238 5.62653 6.86571 5.43986C7.09905 5.2532 7.37571 5.10986 7.69571 5.00986C8.01571 4.90986 8.36905 4.85986 8.75571 4.85986C9.16905 4.85986 9.55571 4.91653 9.91571 5.02986C10.2824 5.13653 10.6124 5.29986 10.9057 5.51986C10.9924 5.58653 11.049 5.6632 11.0757 5.74986C11.1024 5.82986 11.1057 5.9132 11.0857 5.99986C11.0657 6.07986 11.0257 6.14653 10.9657 6.19986C10.9124 6.2532 10.8424 6.28653 10.7557 6.29986C10.669 6.30653 10.5724 6.27653 10.4657 6.20986C10.2057 6.0232 9.93571 5.88986 9.65571 5.80986C9.38238 5.72986 9.08238 5.68986 8.75571 5.68986C8.41571 5.68986 8.12238 5.7432 7.87571 5.84986C7.62905 5.94986 7.43905 6.0932 7.30571 6.27986C7.17238 6.46653 7.10571 6.68653 7.10571 6.93986C7.10571 7.2332 7.19571 7.46653 7.37571 7.63986C7.56238 7.8132 7.86905 7.9432 8.29571 8.02986L9.35571 8.24986C10.0224 8.38986 10.5157 8.6032 10.8357 8.88986C11.1624 9.17653 11.3257 9.56653 11.3257 10.0599C11.3257 10.3665 11.2624 10.6465 11.1357 10.8999C11.0157 11.1465 10.839 11.3599 10.6057 11.5399C10.379 11.7132 10.1024 11.8499 9.77571 11.9499C9.44905 12.0432 9.07905 12.0899 8.66571 12.0899Z" fill="#838383"/>
<path d="M14.4476 12.0899C14.0476 12.0899 13.7143 12.0199 13.4476 11.8799C13.1809 11.7399 12.9809 11.5365 12.8476 11.2699C12.7209 10.9965 12.6576 10.6632 12.6576 10.2699V7.85986H12.0276C11.9009 7.85986 11.8043 7.82653 11.7376 7.75986C11.6709 7.6932 11.6376 7.6032 11.6376 7.48986C11.6376 7.37653 11.6709 7.28986 11.7376 7.22986C11.8043 7.1632 11.9009 7.12986 12.0276 7.12986H12.6576V6.05986C12.6576 5.89986 12.6976 5.77986 12.7776 5.69986C12.8643 5.61986 12.9843 5.57986 13.1376 5.57986C13.2843 5.57986 13.3976 5.61986 13.4776 5.69986C13.5643 5.77986 13.6076 5.89986 13.6076 6.05986V7.12986H14.7976C14.9243 7.12986 15.0209 7.1632 15.0876 7.22986C15.1609 7.28986 15.1976 7.37653 15.1976 7.48986C15.1976 7.6032 15.1609 7.6932 15.0876 7.75986C15.0209 7.82653 14.9243 7.85986 14.7976 7.85986H13.6076V10.1999C13.6076 10.5599 13.6809 10.8332 13.8276 11.0199C13.9809 11.2065 14.2309 11.2999 14.5776 11.2999C14.7043 11.2999 14.8109 11.2899 14.8976 11.2699C14.9843 11.2432 15.0609 11.2265 15.1276 11.2199C15.1943 11.2132 15.2476 11.2365 15.2876 11.2899C15.3343 11.3365 15.3576 11.4265 15.3576 11.5599C15.3576 11.6532 15.3409 11.7399 15.3076 11.8199C15.2743 11.8999 15.2143 11.9532 15.1276 11.9799C15.0476 12.0065 14.9409 12.0299 14.8076 12.0499C14.6743 12.0765 14.5543 12.0899 14.4476 12.0899Z" fill="#838383"/>
</svg>
