<svg width="22" height="20" viewBox="0 0 22 20" fill="none" xmlns="http://www.w3.org/2000/svg">
<path d="M19.8321 2.60987C19.3285 2.09888 18.7306 1.69352 18.0726 1.41696C17.4145 1.14039 16.7092 0.998047 15.9969 0.998047C15.2846 0.998047 14.5792 1.14039 13.9212 1.41696C13.2631 1.69352 12.6652 2.09888 12.1617 2.60987L11.1166 3.66987L10.0715 2.60987C9.05436 1.57818 7.67479 0.998582 6.23631 0.998582C4.79782 0.998582 3.41826 1.57818 2.4011 2.60987C1.38394 3.64157 0.8125 5.04084 0.8125 6.49987C0.8125 7.95891 1.38394 9.35818 2.4011 10.3899L3.44617 11.4499L11.1166 19.2299L18.787 11.4499L19.8321 10.3899C20.3359 9.87912 20.7355 9.27269 21.0082 8.60523C21.2809 7.93777 21.4212 7.22236 21.4212 6.49987C21.4212 5.77739 21.2809 5.06198 21.0082 4.39452C20.7355 3.72706 20.3359 3.12063 19.8321 2.60987V2.60987Z" stroke="#3A3A3A" stroke-linecap="round" stroke-linejoin="round"/>
</svg>
