<svg width="27" height="25" viewBox="0 0 27 25" fill="none" xmlns="http://www.w3.org/2000/svg">
<path d="M8.95867 19.1426C7.57487 19.1426 6.45312 20.2952 6.45312 21.7171C6.45312 23.139 7.57492 24.2916 8.95867 24.2916C10.3425 24.2916 11.4642 23.1389 11.4642 21.7171C11.4643 20.2952 10.3425 19.1426 8.95867 19.1426ZM8.95867 23.1474C8.1899 23.1474 7.56671 22.5071 7.56671 21.7171C7.56671 20.9272 8.1899 20.2869 8.95867 20.2869C9.72744 20.2869 10.3506 20.9272 10.3506 21.7171C10.3507 22.5071 9.72744 23.1474 8.95867 23.1474Z" fill="#3A3A3A"/>
<path d="M19.5368 19.1426C18.153 19.1426 17.0312 20.2952 17.0312 21.7171C17.0312 23.139 18.153 24.2916 19.5368 24.2916C20.9206 24.2916 22.0423 23.1389 22.0423 21.7171C22.0423 20.2952 20.9206 19.1426 19.5368 19.1426ZM19.5368 23.1474C18.768 23.1474 18.1448 22.5071 18.1448 21.7171C18.1448 20.9272 18.768 20.2869 19.5368 20.2869C20.3056 20.2869 20.9288 20.9272 20.9288 21.7171C20.9288 22.5071 20.3056 23.1474 19.5368 23.1474Z" fill="#3A3A3A"/>
<path d="M25.1911 4.12423C25.0752 3.99408 24.9166 3.91261 24.7457 3.89536L6.62208 3.63791L6.12097 2.06458C5.76795 1.01283 4.80942 0.302788 3.72674 0.291016H1.86148C1.55396 0.291016 1.30469 0.547151 1.30469 0.863132C1.30469 1.17911 1.55396 1.43525 1.86148 1.43525H3.72674C4.33213 1.44899 4.86521 1.84842 5.06307 2.43647L8.59871 13.3925L8.32034 14.0504C8.00983 14.8731 8.10309 15.7991 8.57089 16.5391C9.03422 17.2659 9.8137 17.7144 10.6589 17.7405H21.4886C21.7961 17.7405 22.0453 17.4844 22.0453 17.1684C22.0453 16.8524 21.7961 16.5963 21.4886 16.5963H10.6588C10.1815 16.584 9.74219 16.326 9.48956 15.9098C9.23975 15.4986 9.18844 14.992 9.35038 14.5367L9.57311 14.0218L21.2936 12.7631C22.581 12.6174 23.6401 11.6553 23.9384 10.3602L25.2747 4.61044C25.335 4.44487 25.303 4.25865 25.1911 4.12423ZM22.8526 10.1028C22.6719 10.9365 21.9831 11.5514 21.1544 11.6189L9.57311 12.8489L6.98401 4.78215L24.0497 5.0396L22.8526 10.1028Z" fill="#3A3A3A"/>
</svg>
