<svg width="23" height="23" viewBox="0 0 23 23" fill="none" xmlns="http://www.w3.org/2000/svg">
<path d="M6.86667 16.1333C3.21652 12.4832 1.5851 9.12991 1.13505 8.09299C1.04085 7.87593 1 7.64358 1 7.40697V4.71078C1 4.18035 1.21071 3.67164 1.58579 3.29657L3.46814 1.41421C4.24919 0.633165 5.51552 0.633165 6.29657 1.41421L8.89945 4.01709C9.57358 4.69122 9.67816 5.74746 9.14933 6.54071L8.1144 8.09311C7.71628 8.69028 7.66712 9.45617 8.02393 10.0789C8.52141 10.9472 9.29012 12.1725 10.0588 12.9412C10.8275 13.7099 12.0529 14.4786 12.9211 14.9761C13.5438 15.3329 14.3097 15.2837 14.9069 14.8856L16.4593 13.8507C17.2525 13.3218 18.3088 13.4264 18.9829 14.1006L21.5858 16.7034C22.3668 17.4845 22.3668 18.7508 21.5858 19.5319L19.7034 21.4142C19.3284 21.7893 18.8197 22 18.2892 22H15.593C15.3564 22 15.1241 21.9592 14.907 21.865C13.8701 21.4149 10.5168 19.7835 6.86667 16.1333Z" stroke="#838383" stroke-linecap="round" stroke-linejoin="round"/>
</svg>
