<svg width="57" height="57" viewBox="0 0 57 57" fill="none" xmlns="http://www.w3.org/2000/svg">
<circle cx="28.5" cy="28.5" r="26.5" fill="#FEDEC7" stroke="#ED7117" stroke-width="4"/>
<path d="M12.4275 32C12.1635 32 11.9595 31.932 11.8155 31.796C11.6795 31.652 11.6115 31.448 11.6115 31.184V24.236C11.6115 23.98 11.6755 23.784 11.8035 23.648C11.9395 23.512 12.1275 23.444 12.3675 23.444C12.6155 23.444 12.8035 23.512 12.9315 23.648C13.0595 23.784 13.1235 23.98 13.1235 24.236V30.716H16.3515V24.236C16.3515 23.98 16.4155 23.784 16.5435 23.648C16.6795 23.512 16.8675 23.444 17.1075 23.444C17.3555 23.444 17.5435 23.512 17.6715 23.648C17.7995 23.784 17.8635 23.98 17.8635 24.236V30.716H21.0915V24.236C21.0915 23.98 21.1555 23.784 21.2835 23.648C21.4195 23.512 21.6075 23.444 21.8475 23.444C22.0955 23.444 22.2835 23.512 22.4115 23.648C22.5395 23.784 22.6035 23.98 22.6035 24.236V31.184C22.6035 31.448 22.5315 31.652 22.3875 31.796C22.2515 31.932 22.0515 32 21.7875 32H12.4275ZM26.3273 32.12C25.9033 32.12 25.5233 32.04 25.1873 31.88C24.8593 31.712 24.5993 31.488 24.4073 31.208C24.2233 30.928 24.1313 30.612 24.1313 30.26C24.1313 29.828 24.2433 29.488 24.4673 29.24C24.6913 28.984 25.0553 28.8 25.5593 28.688C26.0633 28.576 26.7393 28.52 27.5873 28.52H28.1873V29.384H27.5993C27.1033 29.384 26.7073 29.408 26.4113 29.456C26.1153 29.504 25.9033 29.588 25.7753 29.708C25.6553 29.82 25.5953 29.98 25.5953 30.188C25.5953 30.452 25.6873 30.668 25.8713 30.836C26.0553 31.004 26.3113 31.088 26.6393 31.088C26.9033 31.088 27.1353 31.028 27.3353 30.908C27.5433 30.78 27.7073 30.608 27.8273 30.392C27.9473 30.176 28.0073 29.928 28.0073 29.648V28.268C28.0073 27.868 27.9193 27.58 27.7433 27.404C27.5673 27.228 27.2713 27.14 26.8553 27.14C26.6233 27.14 26.3713 27.168 26.0993 27.224C25.8353 27.28 25.5553 27.376 25.2593 27.512C25.1073 27.584 24.9713 27.604 24.8513 27.572C24.7393 27.54 24.6513 27.476 24.5873 27.38C24.5233 27.276 24.4913 27.164 24.4913 27.044C24.4913 26.924 24.5233 26.808 24.5873 26.696C24.6513 26.576 24.7593 26.488 24.9113 26.432C25.2793 26.28 25.6313 26.172 25.9673 26.108C26.3113 26.044 26.6233 26.012 26.9033 26.012C27.4793 26.012 27.9513 26.1 28.3193 26.276C28.6953 26.452 28.9753 26.72 29.1593 27.08C29.3433 27.432 29.4353 27.888 29.4353 28.448V31.328C29.4353 31.576 29.3753 31.768 29.2553 31.904C29.1353 32.032 28.9633 32.096 28.7393 32.096C28.5153 32.096 28.3393 32.032 28.2113 31.904C28.0913 31.768 28.0313 31.576 28.0313 31.328V30.752H28.1273C28.0713 31.032 27.9593 31.276 27.7913 31.484C27.6313 31.684 27.4273 31.84 27.1793 31.952C26.9313 32.064 26.6473 32.12 26.3273 32.12ZM31.8658 32.096C31.6258 32.096 31.4378 32.028 31.3018 31.892C31.1738 31.756 31.1098 31.564 31.1098 31.316V26.972C31.1098 26.7 31.1818 26.492 31.3258 26.348C31.4698 26.204 31.6778 26.132 31.9498 26.132H35.0098C35.2258 26.132 35.3858 26.18 35.4898 26.276C35.5938 26.372 35.6458 26.52 35.6458 26.72C35.6458 26.912 35.5938 27.06 35.4898 27.164C35.3858 27.26 35.2258 27.308 35.0098 27.308H32.6098V31.316C32.6098 31.836 32.3618 32.096 31.8658 32.096ZM42.432 32.12C42 32.12 41.552 32.064 41.088 31.952C40.624 31.84 40.22 31.672 39.876 31.448C39.716 31.344 39.608 31.224 39.552 31.088C39.496 30.952 39.48 30.824 39.504 30.704C39.536 30.576 39.596 30.468 39.684 30.38C39.78 30.292 39.896 30.24 40.032 30.224C40.176 30.208 40.332 30.244 40.5 30.332C40.828 30.508 41.144 30.636 41.448 30.716C41.752 30.788 42.064 30.824 42.384 30.824C42.736 30.824 43.032 30.776 43.272 30.68C43.512 30.584 43.692 30.44 43.812 30.248C43.94 30.056 44.004 29.824 44.004 29.552C44.004 29.152 43.868 28.856 43.596 28.664C43.332 28.464 42.944 28.364 42.432 28.364H41.664C41.44 28.364 41.268 28.308 41.148 28.196C41.036 28.084 40.98 27.928 40.98 27.728C40.98 27.528 41.036 27.372 41.148 27.26C41.268 27.148 41.44 27.092 41.664 27.092H42.288C42.592 27.092 42.852 27.044 43.068 26.948C43.284 26.844 43.452 26.7 43.572 26.516C43.692 26.332 43.752 26.108 43.752 25.844C43.752 25.476 43.628 25.196 43.38 25.004C43.14 24.812 42.788 24.716 42.324 24.716C42.028 24.716 41.748 24.752 41.484 24.824C41.228 24.888 40.944 25.012 40.632 25.196C40.488 25.284 40.348 25.32 40.212 25.304C40.084 25.288 39.976 25.236 39.888 25.148C39.8 25.06 39.74 24.956 39.708 24.836C39.676 24.708 39.684 24.58 39.732 24.452C39.78 24.316 39.88 24.2 40.032 24.104C40.376 23.88 40.756 23.712 41.172 23.6C41.588 23.48 42.016 23.42 42.456 23.42C43.04 23.42 43.54 23.512 43.956 23.696C44.372 23.872 44.688 24.128 44.904 24.464C45.128 24.792 45.24 25.192 45.24 25.664C45.24 26 45.176 26.308 45.048 26.588C44.92 26.86 44.74 27.092 44.508 27.284C44.276 27.476 43.996 27.612 43.668 27.692V27.548C44.244 27.644 44.692 27.884 45.012 28.268C45.332 28.644 45.492 29.116 45.492 29.684C45.492 30.18 45.368 30.612 45.12 30.98C44.872 31.348 44.52 31.632 44.064 31.832C43.608 32.024 43.064 32.12 42.432 32.12Z" fill="#ED7117"/>
</svg>
