<svg width="58" height="58" viewBox="0 0 58 58" fill="none" xmlns="http://www.w3.org/2000/svg">
<circle cx="28.7734" cy="28.7432" r="26.5" fill="#FEDEC7" stroke="#ED7117" stroke-width="4"/>
<path d="M12.7009 32.2432C12.4369 32.2432 12.2329 32.1752 12.0889 32.0392C11.9529 31.8952 11.8849 31.6912 11.8849 31.4272V24.4792C11.8849 24.2232 11.9489 24.0272 12.0769 23.8912C12.2129 23.7552 12.4009 23.6872 12.6409 23.6872C12.8889 23.6872 13.0769 23.7552 13.2049 23.8912C13.3329 24.0272 13.3969 24.2232 13.3969 24.4792V30.9592H16.6249V24.4792C16.6249 24.2232 16.6889 24.0272 16.8169 23.8912C16.9529 23.7552 17.1409 23.6872 17.3809 23.6872C17.6289 23.6872 17.8169 23.7552 17.9449 23.8912C18.0729 24.0272 18.1369 24.2232 18.1369 24.4792V30.9592H21.3649V24.4792C21.3649 24.2232 21.4289 24.0272 21.5569 23.8912C21.6929 23.7552 21.8809 23.6872 22.1209 23.6872C22.3689 23.6872 22.5569 23.7552 22.6849 23.8912C22.8129 24.0272 22.8769 24.2232 22.8769 24.4792V31.4272C22.8769 31.6912 22.8049 31.8952 22.6609 32.0392C22.5249 32.1752 22.3249 32.2432 22.0609 32.2432H12.7009ZM26.6007 32.3632C26.1767 32.3632 25.7967 32.2832 25.4607 32.1232C25.1327 31.9552 24.8727 31.7312 24.6807 31.4512C24.4967 31.1712 24.4047 30.8552 24.4047 30.5032C24.4047 30.0712 24.5167 29.7312 24.7407 29.4832C24.9647 29.2272 25.3287 29.0432 25.8327 28.9312C26.3367 28.8192 27.0127 28.7632 27.8607 28.7632H28.4607V29.6272H27.8727C27.3767 29.6272 26.9807 29.6512 26.6847 29.6992C26.3887 29.7472 26.1767 29.8312 26.0487 29.9512C25.9287 30.0632 25.8687 30.2232 25.8687 30.4312C25.8687 30.6952 25.9607 30.9112 26.1447 31.0792C26.3287 31.2472 26.5847 31.3312 26.9127 31.3312C27.1767 31.3312 27.4087 31.2712 27.6087 31.1512C27.8167 31.0232 27.9807 30.8512 28.1007 30.6352C28.2207 30.4192 28.2807 30.1712 28.2807 29.8912V28.5112C28.2807 28.1112 28.1927 27.8232 28.0167 27.6472C27.8407 27.4712 27.5447 27.3832 27.1287 27.3832C26.8967 27.3832 26.6447 27.4112 26.3727 27.4672C26.1087 27.5232 25.8287 27.6192 25.5327 27.7552C25.3807 27.8272 25.2447 27.8472 25.1247 27.8152C25.0127 27.7832 24.9247 27.7192 24.8607 27.6232C24.7967 27.5192 24.7647 27.4072 24.7647 27.2872C24.7647 27.1672 24.7967 27.0512 24.8607 26.9392C24.9247 26.8192 25.0327 26.7312 25.1847 26.6752C25.5527 26.5232 25.9047 26.4152 26.2407 26.3512C26.5847 26.2872 26.8967 26.2552 27.1767 26.2552C27.7527 26.2552 28.2247 26.3432 28.5927 26.5192C28.9687 26.6952 29.2487 26.9632 29.4327 27.3232C29.6167 27.6752 29.7087 28.1312 29.7087 28.6912V31.5712C29.7087 31.8192 29.6487 32.0112 29.5287 32.1472C29.4087 32.2752 29.2367 32.3392 29.0127 32.3392C28.7887 32.3392 28.6127 32.2752 28.4847 32.1472C28.3647 32.0112 28.3047 31.8192 28.3047 31.5712V30.9952H28.4007C28.3447 31.2752 28.2327 31.5192 28.0647 31.7272C27.9047 31.9272 27.7007 32.0832 27.4527 32.1952C27.2047 32.3072 26.9207 32.3632 26.6007 32.3632ZM32.1393 32.3392C31.8993 32.3392 31.7113 32.2712 31.5753 32.1352C31.4473 31.9992 31.3833 31.8072 31.3833 31.5592V27.2152C31.3833 26.9432 31.4553 26.7352 31.5993 26.5912C31.7433 26.4472 31.9513 26.3752 32.2233 26.3752H35.2833C35.4993 26.3752 35.6593 26.4232 35.7633 26.5192C35.8673 26.6152 35.9193 26.7632 35.9193 26.9632C35.9193 27.1552 35.8673 27.3032 35.7633 27.4072C35.6593 27.5032 35.4993 27.5512 35.2833 27.5512H32.8833V31.5592C32.8833 32.0792 32.6353 32.3392 32.1393 32.3392ZM40.8694 32.2432C40.6134 32.2432 40.4254 32.1872 40.3054 32.0752C40.1934 31.9552 40.1374 31.7832 40.1374 31.5592C40.1374 31.4232 40.1734 31.2912 40.2454 31.1632C40.3174 31.0352 40.4214 30.8992 40.5574 30.7552L42.9694 28.1872C43.3374 27.8032 43.6014 27.4552 43.7614 27.1432C43.9214 26.8232 44.0014 26.5032 44.0014 26.1832C44.0014 25.7832 43.8734 25.4792 43.6174 25.2712C43.3694 25.0632 43.0054 24.9592 42.5254 24.9592C42.2534 24.9592 41.9814 24.9992 41.7094 25.0792C41.4374 25.1512 41.1614 25.2792 40.8814 25.4632C40.7374 25.5592 40.6014 25.5992 40.4734 25.5832C40.3534 25.5672 40.2454 25.5152 40.1494 25.4272C40.0614 25.3392 40.0014 25.2312 39.9694 25.1032C39.9374 24.9752 39.9414 24.8472 39.9814 24.7192C40.0294 24.5832 40.1254 24.4672 40.2694 24.3712C40.6134 24.1392 40.9974 23.9632 41.4214 23.8432C41.8534 23.7232 42.2854 23.6632 42.7174 23.6632C43.3254 23.6632 43.8374 23.7552 44.2534 23.9392C44.6694 24.1232 44.9854 24.3912 45.2014 24.7432C45.4174 25.0952 45.5254 25.5232 45.5254 26.0272C45.5254 26.3632 45.4694 26.6912 45.3574 27.0112C45.2534 27.3312 45.0894 27.6552 44.8654 27.9832C44.6494 28.3112 44.3654 28.6592 44.0134 29.0272L41.7574 31.3792V30.9712H45.2854C45.5014 30.9712 45.6654 31.0232 45.7774 31.1272C45.8894 31.2312 45.9454 31.3872 45.9454 31.5952C45.9454 31.8032 45.8894 31.9632 45.7774 32.0752C45.6654 32.1872 45.5014 32.2432 45.2854 32.2432H40.8694Z" fill="#ED7117"/>
<mask id="path-3-inside-1_2_163" fill="white">
<path d="M28.4378 0.214895C24.7036 0.243157 21.0115 1.0083 17.5724 2.46663C14.1333 3.92495 11.0145 6.04792 8.39401 8.71429C5.77356 11.3807 3.7028 14.5382 2.29994 18.0067C0.897096 21.4752 0.189639 25.1867 0.217964 28.9293L5.57942 28.8887C5.55644 25.8518 6.13051 22.8401 7.26885 20.0256C8.4072 17.2111 10.0875 14.6489 12.2139 12.4852C14.3403 10.3216 16.871 8.59889 19.6617 7.41553C22.4524 6.23217 25.4483 5.61129 28.4785 5.58836L28.4378 0.214895Z"/>
</mask>
<path d="M28.4378 0.214895C24.7036 0.243157 21.0115 1.0083 17.5724 2.46663C14.1333 3.92495 11.0145 6.04792 8.39401 8.71429C5.77356 11.3807 3.7028 14.5382 2.29994 18.0067C0.897096 21.4752 0.189639 25.1867 0.217964 28.9293L5.57942 28.8887C5.55644 25.8518 6.13051 22.8401 7.26885 20.0256C8.4072 17.2111 10.0875 14.6489 12.2139 12.4852C14.3403 10.3216 16.871 8.59889 19.6617 7.41553C22.4524 6.23217 25.4483 5.61129 28.4785 5.58836L28.4378 0.214895Z" stroke="#FEDEC7" stroke-width="8" stroke-linejoin="round" mask="url(#path-3-inside-1_2_163)"/>
</svg>
