<svg width="73" height="72" viewBox="0 0 73 72" fill="none" xmlns="http://www.w3.org/2000/svg">
<circle cx="36.5" cy="35.8105" r="26.5" fill="#FEDEC7" stroke="#ED7117" stroke-width="4"/>
<path d="M19.74 39.3105C19.476 39.3105 19.272 39.2425 19.128 39.1065C18.992 38.9625 18.924 38.7585 18.924 38.4945V31.5465C18.924 31.2905 18.988 31.0945 19.116 30.9585C19.252 30.8225 19.44 30.7545 19.68 30.7545C19.928 30.7545 20.116 30.8225 20.244 30.9585C20.372 31.0945 20.436 31.2905 20.436 31.5465V38.0265H23.664V31.5465C23.664 31.2905 23.728 31.0945 23.856 30.9585C23.992 30.8225 24.18 30.7545 24.42 30.7545C24.668 30.7545 24.856 30.8225 24.984 30.9585C25.112 31.0945 25.176 31.2905 25.176 31.5465V38.0265H28.404V31.5465C28.404 31.2905 28.468 31.0945 28.596 30.9585C28.732 30.8225 28.92 30.7545 29.16 30.7545C29.408 30.7545 29.596 30.8225 29.724 30.9585C29.852 31.0945 29.916 31.2905 29.916 31.5465V38.4945C29.916 38.7585 29.844 38.9625 29.7 39.1065C29.564 39.2425 29.364 39.3105 29.1 39.3105H19.74ZM33.6398 39.4305C33.2158 39.4305 32.8358 39.3505 32.4998 39.1905C32.1718 39.0225 31.9118 38.7985 31.7198 38.5185C31.5358 38.2385 31.4438 37.9225 31.4438 37.5705C31.4438 37.1385 31.5558 36.7985 31.7798 36.5505C32.0038 36.2945 32.3678 36.1105 32.8718 35.9985C33.3758 35.8865 34.0518 35.8305 34.8998 35.8305H35.4998V36.6945H34.9118C34.4158 36.6945 34.0198 36.7185 33.7238 36.7665C33.4278 36.8145 33.2158 36.8985 33.0878 37.0185C32.9678 37.1305 32.9078 37.2905 32.9078 37.4985C32.9078 37.7625 32.9998 37.9785 33.1838 38.1465C33.3678 38.3145 33.6238 38.3985 33.9518 38.3985C34.2158 38.3985 34.4478 38.3385 34.6478 38.2185C34.8558 38.0905 35.0198 37.9185 35.1398 37.7025C35.2598 37.4865 35.3198 37.2385 35.3198 36.9585V35.5785C35.3198 35.1785 35.2318 34.8905 35.0558 34.7145C34.8798 34.5385 34.5838 34.4505 34.1678 34.4505C33.9358 34.4505 33.6838 34.4785 33.4118 34.5345C33.1478 34.5905 32.8678 34.6865 32.5718 34.8225C32.4198 34.8945 32.2838 34.9145 32.1638 34.8825C32.0518 34.8505 31.9638 34.7865 31.8998 34.6905C31.8358 34.5865 31.8038 34.4745 31.8038 34.3545C31.8038 34.2345 31.8358 34.1185 31.8998 34.0065C31.9638 33.8865 32.0718 33.7985 32.2238 33.7425C32.5918 33.5905 32.9438 33.4825 33.2798 33.4185C33.6238 33.3545 33.9358 33.3225 34.2158 33.3225C34.7918 33.3225 35.2638 33.4105 35.6318 33.5865C36.0078 33.7625 36.2878 34.0305 36.4718 34.3905C36.6558 34.7425 36.7478 35.1985 36.7478 35.7585V38.6385C36.7478 38.8865 36.6878 39.0785 36.5678 39.2145C36.4478 39.3425 36.2758 39.4065 36.0518 39.4065C35.8278 39.4065 35.6518 39.3425 35.5238 39.2145C35.4038 39.0785 35.3438 38.8865 35.3438 38.6385V38.0625H35.4398C35.3838 38.3425 35.2718 38.5865 35.1038 38.7945C34.9438 38.9945 34.7398 39.1505 34.4918 39.2625C34.2438 39.3745 33.9598 39.4305 33.6398 39.4305ZM39.1783 39.4065C38.9383 39.4065 38.7503 39.3385 38.6143 39.2025C38.4863 39.0665 38.4223 38.8745 38.4223 38.6265V34.2825C38.4223 34.0105 38.4943 33.8025 38.6383 33.6585C38.7823 33.5145 38.9903 33.4425 39.2623 33.4425H42.3223C42.5383 33.4425 42.6983 33.4905 42.8023 33.5865C42.9063 33.6825 42.9583 33.8305 42.9583 34.0305C42.9583 34.2225 42.9063 34.3705 42.8023 34.4745C42.6983 34.5705 42.5383 34.6185 42.3223 34.6185H39.9223V38.6265C39.9223 39.1465 39.6743 39.4065 39.1783 39.4065ZM48.1845 39.3105C47.9765 39.3105 47.8125 39.2545 47.6925 39.1425C47.5805 39.0225 47.5245 38.8625 47.5245 38.6625C47.5245 38.4545 47.5805 38.2985 47.6925 38.1945C47.8125 38.0905 47.9765 38.0385 48.1845 38.0385H49.5285V32.1465H50.2725L48.5085 33.2145C48.3565 33.3025 48.2125 33.3385 48.0765 33.3225C47.9485 33.2985 47.8365 33.2425 47.7405 33.1545C47.6525 33.0585 47.5925 32.9465 47.5605 32.8185C47.5285 32.6905 47.5365 32.5625 47.5845 32.4345C47.6405 32.2985 47.7445 32.1865 47.8965 32.0985L49.5525 31.1025C49.7125 31.0065 49.8725 30.9265 50.0325 30.8625C50.1925 30.7905 50.3405 30.7545 50.4765 30.7545C50.6445 30.7545 50.7845 30.8025 50.8965 30.8985C51.0085 30.9865 51.0645 31.1345 51.0645 31.3425V38.0385H52.2885C52.4965 38.0385 52.6565 38.0905 52.7685 38.1945C52.8885 38.2985 52.9485 38.4545 52.9485 38.6625C52.9485 38.8705 52.8885 39.0305 52.7685 39.1425C52.6565 39.2545 52.4965 39.3105 52.2885 39.3105H48.1845Z" fill="#ED7117"/>
<mask id="path-3-inside-1_2_159" fill="white">
<path d="M63.6501 44.467C62.0493 49.4882 59.0876 53.9672 55.0941 57.4062C51.1006 60.8452 46.2317 63.1096 41.0286 63.9476C35.8255 64.7857 30.4919 64.1646 25.6205 62.1534C20.7492 60.1422 16.5309 56.8196 13.4345 52.555C10.3381 48.2904 8.4848 43.2507 8.0806 37.996C7.67641 32.7414 8.73714 27.4775 11.1449 22.7895C13.5527 18.1015 17.2132 14.1729 21.7196 11.4404C26.2261 8.70784 31.402 7.27835 36.672 7.31078L36.647 11.3729C32.1281 11.3451 27.69 12.5708 23.8258 14.9139C19.9617 17.257 16.8229 20.6256 14.7584 24.6454C12.6938 28.6652 11.7842 33.1788 12.1308 37.6845C12.4774 42.1902 14.0665 46.5116 16.7216 50.1683C19.3767 53.8251 22.9937 56.6741 27.1707 58.3986C31.3477 60.1232 35.9211 60.6557 40.3827 59.9371C44.8442 59.2185 49.0191 57.2769 52.4434 54.3281C55.8676 51.3792 58.4072 47.5387 59.7799 43.2332L63.6501 44.467Z"/>
</mask>
<path d="M63.6501 44.467C62.0493 49.4882 59.0876 53.9672 55.0941 57.4062C51.1006 60.8452 46.2317 63.1096 41.0286 63.9476C35.8255 64.7857 30.4919 64.1646 25.6205 62.1534C20.7492 60.1422 16.5309 56.8196 13.4345 52.555C10.3381 48.2904 8.4848 43.2507 8.0806 37.996C7.67641 32.7414 8.73714 27.4775 11.1449 22.7895C13.5527 18.1015 17.2132 14.1729 21.7196 11.4404C26.2261 8.70784 31.402 7.27835 36.672 7.31078L36.647 11.3729C32.1281 11.3451 27.69 12.5708 23.8258 14.9139C19.9617 17.257 16.8229 20.6256 14.7584 24.6454C12.6938 28.6652 11.7842 33.1788 12.1308 37.6845C12.4774 42.1902 14.0665 46.5116 16.7216 50.1683C19.3767 53.8251 22.9937 56.6741 27.1707 58.3986C31.3477 60.1232 35.9211 60.6557 40.3827 59.9371C44.8442 59.2185 49.0191 57.2769 52.4434 54.3281C55.8676 51.3792 58.4072 47.5387 59.7799 43.2332L63.6501 44.467Z" stroke="#FEDEC7" stroke-width="8" mask="url(#path-3-inside-1_2_159)"/>
</svg>
